<svg xmlns="http://www.w3.org/2000/svg" width="304" height="304" viewBox="0 0 304 304">
  <g id="Raggruppa_4426" data-name="Raggruppa 4426" transform="translate(-5376 -5725)">
    <rect id="Rettangolo_2513" data-name="Rettangolo 2513" width="304" height="304" rx="100" transform="translate(5376 5725)" fill="#2857bf"/>
    <g id="Raggruppa_4425" data-name="Raggruppa 4425" transform="translate(-261.51 -4.326)">
      <path id="bug-svgrepo-com" d="M63,37.04H53.39V26.614l8.481-8.482a3.2,3.2,0,0,0-4.53-4.53L52.28,18.664a20.29,20.29,0,0,0-38.355,0L8.862,13.6a3.2,3.2,0,1,0-4.53,4.53l8.482,8.482V37.04H3.2a3.2,3.2,0,1,0,0,6.407h9.639a20.152,20.152,0,0,0,2.978,9.542L5.209,63.6a3.2,3.2,0,1,0,4.53,4.53L20.011,57.859a20.2,20.2,0,0,0,13.092,4.8h.031a20.2,20.2,0,0,0,13.059-4.8L56.464,68.129a3.2,3.2,0,1,0,4.53-4.53l-10.61-10.61a20.151,20.151,0,0,0,2.978-9.542H63a3.2,3.2,0,0,0,0-6.407ZM33.1,11.406A13.906,13.906,0,0,1,46.61,22.084H19.594A13.905,13.905,0,0,1,33.1,11.406ZM19.221,42.372v-1.98c0-.05.007-.1.007-.149s-.005-.1-.007-.148v-11.6h10.7v27.39A13.9,13.9,0,0,1,19.221,42.372Zm17.1,13.5V28.491H46.984v11.6c0,.052-.008.1-.008.157s.005.1.008.157v1.972A13.9,13.9,0,0,1,36.325,55.872Z" transform="translate(5756.408 5844.292)" fill="#fff"/>
      <path id="icons8-phabricator" d="M105.1,5A79.216,79.216,0,0,0,48.92,28.812c-21.24,21.6-11.6,11.807-39.94,40.359a24.567,24.567,0,0,0,0,34.309c29.173,29.395,19.363,19.478,40.647,41.081l.043-.043a79.254,79.254,0,0,0,112.6-.679c21.285-21.558,11.643-11.821,39.767-40.373a24.549,24.549,0,0,0,0-34.294l-40.489-41.1-.043.058A79.3,79.3,0,0,0,105.1,5Zm.477,14.9A66.429,66.429,0,1,1,58.609,39.367,66.359,66.359,0,0,1,105.581,19.9Z" transform="translate(5684.001 5795)" fill="#fff"/>
    </g>
  </g>
</svg>
