<svg xmlns="http://www.w3.org/2000/svg" width="280" height="280" viewBox="0 0 280 280">
  <g id="Raggruppa_4415" data-name="Raggruppa 4415" transform="translate(-5191 -4515)">
    <circle id="Ellisse_191" data-name="Ellisse 191" cx="140" cy="140" r="140" transform="translate(5191 4515)" fill="#fff"/>
    <g id="splash_logo" transform="translate(5261.725 4571.716)">
      <g id="Livello_1-2" transform="translate(8.177 -0.023)">
        <g id="Raggruppa_3754">
          <path id="Tracciato_1328" d="M128.949,46.967A61.252,61.252,0,1,0,9.867,75.72a46.283,46.283,0,0,0,3.526,10.308,76.545,76.545,0,0,0,7.053,11.935l.814,1.356c7.866,11.935,16,23.871,23.6,35.535L54.625,149.5H42.147a9.075,9.075,0,0,0-8.951,7.866,8.558,8.558,0,0,0,7.866,9.223h.814l56.421-.543a9.075,9.075,0,0,0,8.951-7.866,8.471,8.471,0,0,0-7.866-8.951H85.548l11.935-18.445,10.036-15.733,13.292-20.887A60.169,60.169,0,0,0,130.3,61.072V60.8A47.967,47.967,0,0,0,128.949,46.967ZM113.216,60.8a46.009,46.009,0,0,1-6.781,23.871c-4.34,7.053-8.951,13.834-13.292,20.887-3.255,5.154-6.781,10.579-10.036,15.733h0c-4.34,6.239-8.409,12.749-12.478,19.259a.947.947,0,0,1-.271.543c-.271-.271-.271-.543-.543-.543l-10.85-16c-7.6-11.393-15.462-23.328-23.057-34.992L34.823,88.2A63.179,63.179,0,0,1,29.4,78.975,43.75,43.75,0,0,1,51.912,21.2a46.154,46.154,0,0,1,8.68-2.713,44.9,44.9,0,0,1,8.68-.814c23.871-.543,43.672,18.988,43.943,43.13Z" transform="translate(-8.177 0.023)" fill="#6c77f5"/>
          <path id="Tracciato_1329" d="M20.5,23.643h0A27.941,27.941,0,1,0,76.379,23.1h0Z" transform="translate(12.927 39.623)" fill="#6c77f5"/>
        </g>
      </g>
    </g>
  </g>
</svg>
