<svg xmlns="http://www.w3.org/2000/svg" width="259.685" height="259.685" viewBox="0 0 259.685 259.685">
  <path id="icons8-phone" d="M65.83,3.99A61.921,61.921,0,0,0,4,65.82V201.846a61.921,61.921,0,0,0,61.83,61.83H201.855a61.921,61.921,0,0,0,61.83-61.83V65.82a61.921,61.921,0,0,0-61.83-61.83ZM90.6,53.72a12.148,12.148,0,0,1,9.6,5.712c2.448,3.821,6.248,9.751,11.195,17.486a23.2,23.2,0,0,1,.8,23.524l-9.057,12.885a12.339,12.339,0,0,0-1.292,11.883,75.923,75.923,0,0,0,40.684,40.684,12.339,12.339,0,0,0,11.883-1.292l12.885-9.057a23.217,23.217,0,0,1,23.524.8c7.735,4.946,13.665,8.746,17.486,11.195a12.148,12.148,0,0,1,5.712,9.6c.952,22.036-16.12,30.963-21.085,30.963-3.438,0-44.767,4.7-91.38-41.916S59.635,78.242,59.635,74.8C59.635,69.84,68.562,52.768,90.6,53.72Z" transform="translate(-4 -3.99)" fill="#5087ed"/>
</svg>
