<svg xmlns="http://www.w3.org/2000/svg" width="280" height="280" viewBox="0 0 280 280">
  <g id="Raggruppa_4416" data-name="Raggruppa 4416" transform="translate(-5607 -4530)">
    <circle id="Ellisse_192" data-name="Ellisse 192" cx="140" cy="140" r="140" transform="translate(5607 4530)" fill="#fff"/>
    <g id="xamarin-seeklogo.com" transform="translate(5656.144 4589.16)">
      <path id="Tracciato_5020" data-name="Tracciato 5020" d="M52.431,0A14.417,14.417,0,0,0,40.249,7.046L1.824,73.794a14.521,14.521,0,0,0,0,14.092l38.425,66.748a14.416,14.416,0,0,0,12.182,7.046h76.85a14.418,14.418,0,0,0,12.182-7.046l38.425-66.748a14.521,14.521,0,0,0,0-14.092L141.463,7.046A14.416,14.416,0,0,0,129.281,0Zm.7,39.049a1.666,1.666,0,0,1,.322,0H66.706a1.748,1.748,0,0,1,1.449.861L90.641,79.98a1.727,1.727,0,0,1,.214.645,1.725,1.725,0,0,1,.214-.645L113.5,39.909a1.753,1.753,0,0,1,1.5-.861h13.255a1.813,1.813,0,0,1,1.5,2.528L107.813,80.84l21.949,39.21a1.814,1.814,0,0,1-1.5,2.582H115a1.753,1.753,0,0,1-1.5-.914L91.069,81.647A1.727,1.727,0,0,1,90.855,81a1.725,1.725,0,0,1-.214.645L68.155,121.718a1.752,1.752,0,0,1-1.449.914H53.451a1.814,1.814,0,0,1-1.5-2.582L73.9,80.84,51.948,41.577a1.806,1.806,0,0,1,1.18-2.528Z" fill="#3498db"/>
    </g>
  </g>
</svg>
