<svg width="0" height="0" class="hidden">
  <symbol fill="none" xmlns="http://www.w3.org/2000/svg" viewBox="204.925 153.577 757.617 860.543" id="c4">
    <path d="M962.541 407.983c0-14.237-3.034-27.074-9.336-37.811-6.068-10.736-15.171-19.605-27.307-26.607-100.829-58.117-201.891-116.233-302.72-174.35-27.308-15.638-53.449-15.171-80.523.7-40.145 23.574-241.336 138.873-301.086 173.65-24.741 14.237-36.644 36.177-36.644 64.652V759.25c0 14.004 3.034 26.374 8.869 37.111 6.069 10.97 15.405 20.306 27.775 27.541 59.984 34.777 260.941 149.843 301.086 173.65 27.074 15.868 53.448 16.568 80.523.7 100.829-58.35 201.891-116.233 302.72-174.35 12.603-7.235 21.706-16.338 27.774-27.541 5.835-10.737 8.869-23.107 8.869-37.111z" fill="#9a4993"></path>
    <path d="M584.667 582.333l-371.34 213.794c6.069 10.97 15.405 20.306 27.775 27.542 59.984 34.776 260.941 149.842 301.086 173.649 27.074 15.872 53.449 16.572 80.523.7 100.829-58.35 201.891-116.233 302.72-174.349 12.603-7.236 21.706-16.338 27.774-27.542z" fill="#6a1577"></path>
    <path d="M474.735 645.584c21.707 37.811 62.318 63.252 108.765 63.252 46.913 0 87.758-25.674 109.231-63.952l-108.064-62.551z" fill="#6a1577"></path>
    <path d="M962.542 407.983c0-14.237-3.035-27.074-9.336-37.811L584.667 582.333l369.005 213.795c5.835-10.737 8.87-23.107 8.87-37.111z" fill="#813084"></path>
    <g fill="#fff">
      <path d="M692.731 644.884c-21.472 38.044-62.317 63.952-109.231 63.952-46.68 0-87.291-25.441-108.764-63.252-10.503-18.438-16.572-39.444-16.572-62.084 0-69.32 56.016-125.336 125.336-125.336 46.213 0 86.592 25.207 108.298 62.551l109.464-63.018c-43.645-75.154-124.869-125.802-217.995-125.802-139.107 0-251.605 112.732-251.605 251.605 0 45.513 12.136 88.459 33.376 125.336C408.45 784.224 490.14 835.105 583.5 835.105c93.594 0 175.284-51.114 218.696-126.969zm138.406-120.901h-24.974v120.668h24.974zm55.316 0h-24.974v120.668h24.974z"></path>
      <path d="M906.759 544.289H786.091v24.974h120.668zm0 55.082H786.091v24.974h120.668z"></path>
    </g>
  </symbol>
  <symbol xmlns="http://www.w3.org/2000/svg" xmlns:xlink="http://www.w3.org/1999/xlink" viewBox="0 0 70.31 70.31" id="css3">
    <defs>
      <linearGradient id="a" x1="-850.9" y1="514.62" x2="-850.9" y2="513.62" gradientTransform="matrix(12.73 0 0 -10.55 10858.15 5602.94)" gradientUnits="userSpaceOnUse">
        <stop offset=".39" stop-color="#d1d3d4" stop-opacity="0"></stop>
        <stop offset="1" stop-color="#d1d3d4"></stop>
      </linearGradient>
      <linearGradient id="c" x1="-855.72" y1="515.95" x2="-855.72" y2="514.95" gradientTransform="matrix(13.63 0 0 -10.96 11707.1 5836.88)" xlink:href="#a"></linearGradient>
      <linearGradient id="b" x1="-892.92" y1="550.18" x2="-891.92" y2="550.18" gradientTransform="matrix(25.34 0 0 -19.91 22507.98 10999.59)" gradientUnits="userSpaceOnUse">
        <stop offset="0" stop-color="#e8e7e5"></stop>
        <stop offset="1" stop-color="#fff"></stop>
      </linearGradient>
      <linearGradient id="d" x1="-895.36" y1="481.61" x2="-894.36" y2="481.61" gradientTransform="matrix(27.5 0 0 -5.37 24507.27 2613.57)" xlink:href="#b"></linearGradient>
    </defs>
    <title>css3</title>
    <path d="M0 0h70.31v70.31H0z" fill="none"></path>
    <path d="M52.94 61l-17.78 4.81L17.37 61l-4.1-44.46H57z" fill="#2062af"></path>
    <path d="M35.15 20.17V62h.05l14.39-3.88 3.32-38z" fill="#3c9cd7"></path>
    <path d="M25.06 10V7.39h3.86v-2.9h-6.76v8.19h6.76V10zm10.8-2.65h2.7V4.49h-6.75v2.9c.9.9 1.38 1.34 2.68 2.65h-2.68v2.64h6.76V10zm9.58 0h2.7V4.49h-6.76v2.9c.9.9 1.38 1.34 2.68 2.65h-2.68v2.64h6.76V10z"></path>
    <path d="M35.14 31.29l-12.73 5.3.42 5.24 12.31-5.26L48.23 31l.54-5.36-13.63 5.64z" fill="#fff"></path>
    <path d="M22.41 36.59l.42 5.24 12.31-5.26v-5.28z" fill="url(#a)"></path>
    <path d="M48.77 25.61l-13.63 5.68v5.28L48.23 31z" fill="url(#c)"></path>
    <path d="M22.43 36.59l.42 5.24 18.88.06-.42 7-6.21 1.75-6-1.5-.37-4.35h-5.51l.72 8.39 11.22 3.31 11.16-3.25 1.45-16.65z" fill="url(#b)"></path>
    <path d="M35.14 36.59H22.41l.42 5.24h12.31zm0 14h-.06l-6-1.51-.37-4.34H23.2l.72 8.39 11.22 3.31z" opacity=".05"></path>
    <path d="M21.27 25.61h27.5L48.22 31h-26.3z" fill="url(#d)"></path>
    <path d="M35.14 25.61H21.27l.66 5.39h13.21z" opacity=".05"></path>
  </symbol>
  <symbol xmlns="http://www.w3.org/2000/svg" viewBox="0 0 254.31 256" id="dart">
    <title>dart</title>
    <path d="M69.68 69.7L53.15 53.15l.07 119.6.2 5.59a39.45 39.45 0 001.37 8.66l131.1 46.23 32.78-14.52-149-149" fill="#00d2b8"></path>
    <path d="M54.79 187a.85.85 0 010-.17.41.41 0 000 .16zm163.88 31.71l-32.78 14.52L54.8 187c2.5 9.61 8.05 20.41 14 26.32l42.79 42.54 95.13.12 11.95-37.32z" fill="#55ddca"></path>
    <path d="M2.15 130.12c-4.2 4.52-2.1 13.88 4.72 20.72l29.42 29.66 18.5 6.5a39.45 39.45 0 01-1.38-8.67l-.2-5.59-.06-119.59z" fill="#0081c6"></path>
    <path d="M186.97 54.69a40.54 40.54 0 00-8.7-1.36l-5.91-.2H53.15l165.54 165.55 14.54-32.8-46.26-131.19" fill="#0079b3"></path>
    <path d="M186.82 54.65a.53.53 0 00.16 0h-.15zm26.45 14.08c-6-6.06-16.67-11.56-26.29-14l46.27 131.15-14.54 32.8 35.54-11.34.07-97.42-41-41.19z" fill="#00a4e4"></path>
    <path d="M180.49 36.3L150.83 6.86C143.98.07 134.64-2 130.15 2.18l-77 51h119.21l5.91.2a40.54 40.54 0 018.7 1.36l-6.48-18.44z" fill="#00d2b8"></path>
  </symbol>
  <symbol xmlns="http://www.w3.org/2000/svg" viewBox="0 0 30.84 20.21" id="english">
    <title>english</title>
    <path d="M28.53 0H2.31A2.3 2.3 0 000 2.31V17.9a2.31 2.31 0 002.31 2.31h26.22a2.31 2.31 0 002.31-2.31V2.31A2.3 2.3 0 0028.53 0z" fill="#41479b"></path>
    <path d="M30.81 1.92A2.31 2.31 0 0028.53 0h-.6l-9.85 6.45V0h-5.32v6.45L2.91 0h-.6A2.31 2.31 0 000 1.92l8.45 5.52H0v5.32h8.45L0 18.28a2.31 2.31 0 002.31 1.92h.6l9.85-6.45v6.45h5.32v-6.45l9.85 6.45h.6a2.31 2.31 0 002.28-1.92l-8.42-5.52h8.45V7.44h-8.45z" fill="#f5f5f5"></path>
    <g fill="#ff4b55">
      <path d="M17 0h-3.17v8.51H0v3.19h13.83v8.51H17V11.7h13.84V8.51H17z"></path>
      <path d="M1.62 20.05l12.16-7.9h-2.11L.6 19.33a2.54 2.54 0 001.02.72zM20 12.15h-2.07l11.78 7.65a2.5 2.5 0 00.8-.85zM.26 1.38l10.29 6.68h2.12L1 .49a2.57 2.57 0 00-.74.89zm18.88 6.68L30.23.86a2.58 2.58 0 00-1-.71L17 8.06z"></path>
    </g>
  </symbol>
  <symbol xmlns="http://www.w3.org/2000/svg" viewBox="0 0 44.06 54.65" id="flutter">
    <defs>
      <linearGradient id="a" x1="-823.19" y1="497.81" x2="-823.17" y2="497.82" gradientTransform="matrix(7.7 0 0 -7.7 6298.81 3899.88)" gradientUnits="userSpaceOnUse">
        <stop offset="0" stop-opacity=".8"></stop>
        <stop offset="1" stop-opacity="0"></stop>
      </linearGradient>
    </defs>
    <title>flutter</title>
    <path d="M27.21 0L0 27.21l8.42 8.43L44.06 0zM27 25.1L12.45 39.67l8.46 8.58 8.4-8.41L44.06 25.1z" fill="#47c5fb"></path>
    <path d="M20.91 48.25l6.4 6.4h16.75L29.31 39.84z" fill="#00569e"></path>
    <path d="M12.36 39.76l8.42-8.42 8.53 8.5-8.4 8.4z" fill="#00b5f8"></path>
    <path d="M20.91 48.25l7-2.33.7-5.37z" fill="url(#a)"></path>
  </symbol>
  <symbol xmlns="http://www.w3.org/2000/svg" viewBox="0 0 19.96 19.46" id="github">
    <title>github</title>
    <path d="M10 0a10 10 0 00-3.18 19.44c.5.09.68-.22.68-.48v-1.7c-2.78.6-3.36-1.34-3.36-1.34A2.65 2.65 0 003 14.46c-.9-.62.07-.6.07-.6a2.08 2.08 0 011.53 1 2.11 2.11 0 002.88.84 2.11 2.11 0 01.63-1.33c-2.21-.25-4.54-1.11-4.54-4.93a3.82 3.82 0 011-2.67 3.55 3.55 0 01.1-2.64s.83-.27 2.74 1a9.39 9.39 0 015 0c1.91-1.29 2.74-1 2.74-1a3.55 3.55 0 01.1 2.64 3.82 3.82 0 011 2.67c0 3.84-2.33 4.68-4.56 4.93a2.38 2.38 0 01.68 1.84v2.74c0 .33.18.57.68.48A10 10 0 0010 0z"></path>
  </symbol>
  <symbol xmlns="http://www.w3.org/2000/svg" viewBox="0 0 1771 2499.77" id="html5">
    <title>html5</title>
    <path d="M161.17 2298.98L0 491.26h1771L1609.65 2298.7l-725.24 201.06z" fill="#e44d26"></path>
    <path d="M885.5 2346.08l586-162.48 137.91-1544.53H885.5z" fill="#f16529"></path>
    <path d="M885.5 1309.53H592.13l-20.27-227H885.5V860.78H329.55l5.31 59.48 54.49 611H885.5zm0 575.8l-1 .27-246.89-66.72-15.79-176.82H399.26l31.07 348.12 454.16 126.07 1-.28z" fill="#ebebeb"></path>
    <path d="M164.78 0h112.66v111.31h103.07V0h112.67v337.09H380.51V224.21H277.44v112.88H164.78zm476.57 111.79h-99.18V0h311.1v111.79H754v225.3H641.36v-225.3zM902.64 0h117.49l72.27 118.44L1164.6 0h117.53v337.09H1169.9V170l-77.52 119.88h-1.93l-77.57-119.86v167.07H902.63V0zm435.55 0h112.7v225.67h158.46v111.42h-271.16z"></path>
    <path d="M884.74 1309.53v221.71h273L1132 1818.78l-247.27 66.74v230.66l454.51-126 3.33-37.47 52.11-583.68 5.41-59.54H884.74zm0-448.75v221.72h535.53l4.44-49.84 10.11-112.4 5.3-59.48z" fill="#fff"></path>
  </symbol>
  <symbol xmlns="http://www.w3.org/2000/svg" viewBox="0 0 32.53 21.31" id="italian">
    <title>italian</title>
    <path d="M2.44 0A2.44 2.44 0 000 2.44v16.43a2.44 2.44 0 002.44 2.44h8.4V0z" fill="#73af00"></path>
    <path fill="#f5f5f5" d="M10.84 0h10.84v21.31H10.84z"></path>
    <path d="M30.09 0h-8.41v21.31h8.41a2.44 2.44 0 002.44-2.44V2.44A2.44 2.44 0 0030.09 0z" fill="#ff4b55"></path>
  </symbol>
  <symbol xmlns="http://www.w3.org/2000/svg" viewBox="0 0 45.48 61.67" id="java">
    <title>java</title>
    <path d="M14.65 47.69s-2.36 1.37 1.67 1.83A35.16 35.16 0 0029.09 49a22.28 22.28 0 003.4 1.66c-12.08 5.17-27.32-.3-17.84-3m-1.48-6.72s-2.64 2 1.39 2.37A49.6 49.6 0 0031 42.52a7.37 7.37 0 002.54 1.55C19 48.34 2.73 44.4 13.17 40.94" fill="#5382a1"></path>
    <path d="M25.61 29.48c3 3.43-.78 6.51-.78 6.51s7.55-3.9 4.08-8.78c-3.24-4.56-5.72-6.82 7.73-14.62 0 0-21.12 5.27-11 16.89" fill="#e76f00"></path>
    <path d="M41.57 52.68s1.75 1.44-1.92 2.55c-7 2.11-29 2.75-35.12.08-2.2-1 1.93-2.28 3.22-2.56a8.49 8.49 0 012.13-.24c-2.45-1.72-15.82 3.39-6.79 4.85 24.61 4 44.87-1.8 38.48-4.68M15.78 33.94s-11.21 2.67-4 3.63a83.48 83.48 0 0014.83-.16c4.63-.39 9.29-1.22 9.29-1.22a20 20 0 00-2.81 1.51c-11.39 3-33.37 1.6-27-1.46a21.24 21.24 0 019.7-2.3m20.09 11.24c11.57-6 6.22-11.79 2.49-11a7.58 7.58 0 00-1.32.36 2.1 2.1 0 011-.77c7.38-2.6 13.06 7.66-2.39 11.72a.89.89 0 00.24-.3" fill="#5382a1"></path>
    <path d="M28.91 0s6.41 6.41-6.08 16.26c-10 7.91-2.28 12.42 0 17.57C17 28.56 12.7 23.91 15.58 19.6 19.8 13.25 31.5 10.18 28.91 0" fill="#e76f00"></path>
    <path d="M16.92 61.47c11.1.71 28.16-.39 28.56-5.65 0 0-.78 2-9.18 3.58a91.32 91.32 0 01-28.1.43s1.42 1.17 8.72 1.64" fill="#5382a1"></path>
  </symbol>
  <symbol xmlns="http://www.w3.org/2000/svg" viewBox="0 0 18 18" id="linkedin">
    <title>linkedin</title>
    <path d="M10 18H6V6h4v2a4.63 4.63 0 013.52-1.76A4.49 4.49 0 0118 10.75V18h-4v-6.75a2.25 2.25 0 00-2.25-1.94A1.8 1.8 0 0010 11.18V18zm-6 0H0V6h4zM2 4a2 2 0 112-2 2 2 0 01-2 2z"></path>
  </symbol>
  <symbol xmlns="http://www.w3.org/2000/svg" viewBox="0 0 22 18" id="mail">
    <title>mail</title>
    <g fill="#fff" stroke="#000" stroke-linecap="round" stroke-linejoin="round" stroke-width="2">
      <path d="M3 1h16a2 2 0 012 2v12a2 2 0 01-2 2H3a2 2 0 01-2-2V3a2 2 0 012-2z"></path>
      <path d="M21 3l-10 7L1 3"></path>
    </g>
  </symbol>
  <symbol xmlns="http://www.w3.org/2000/svg" viewBox="0 0 256 288.46" id="nodejs">
    <title>nodejs</title>
    <path d="M128 288.46a23.26 23.26 0 01-11.13-2.91l-35.25-20.94c-5.3-2.91-2.65-4-1.06-4.5 7.16-2.39 8.48-2.92 15.9-7.16a2.44 2.44 0 012.65.27l27 16.16a3.39 3.39 0 003.19 0l105.73-61.21a3 3 0 001.59-2.92V83.08a3 3 0 00-1.59-2.91l-105.73-61a3.39 3.39 0 00-3.19 0l-105.73 61a3.32 3.32 0 00-1.59 2.91v122.17a3.33 3.33 0 001.59 2.92l28.88 16.69c15.64 7.95 25.44-1.32 25.44-10.6V93.68a3.23 3.23 0 013.18-3.18h13.55a3.23 3.23 0 013.18 3.18v120.58c0 20.94-11.4 33.13-31.27 33.13-6.1 0-10.87 0-24.38-6.63l-27.83-15.9A22.35 22.35 0 010 205.52V83.35A22.38 22.38 0 0111.13 64L116.87 2.78a23.65 23.65 0 0122.26 0L244.87 64A22.38 22.38 0 01256 83.35v122.17a22.35 22.35 0 01-11.13 19.34l-105.74 61.22a27.1 27.1 0 01-11.13 2.38zm32.6-84c-46.38 0-55.92-21.21-55.92-39.23a3.22 3.22 0 013.18-3.18h13.78a2.72 2.72 0 012.91 2.65c2.12 14.05 8.22 20.94 36.31 20.94 22.26 0 31.8-5 31.8-17 0-6.89-2.65-11.93-37.36-15.37-28.89-2.92-46.91-9.28-46.91-32.33 0-21.47 18-34.19 48.23-34.19 33.92 0 50.62 11.66 52.74 37.1a4.3 4.3 0 01-.8 2.39 3.26 3.26 0 01-2.12 1.06h-13.78a3.1 3.1 0 01-2.91-2.39c-3.18-14.57-11.4-19.34-33.13-19.34-24.38 0-27.29 8.48-27.29 14.84 0 7.68 3.44 10.07 36.3 14.31 32.6 4.24 48 10.33 48 33.12-.27 23.32-19.35 36.58-53 36.58z" fill="#539e43"></path>
  </symbol>
  <symbol xmlns="http://www.w3.org/2000/svg" viewBox="0 0 54.38 48.43" id="react-js">
    <title>react-js</title>
    <path d="M54.38 24.22c0-3.6-4.51-7-11.42-9.13 1.6-7 .88-12.66-2.24-14.46A4.92 4.92 0 0038.23 0v2.49a2.45 2.45 0 011.27.29c1.51.86 2.16 4.15 1.65 8.39a31.78 31.78 0 01-.57 3.25 53.76 53.76 0 00-7-1.2 57 57 0 00-4.61-5.55c3.61-3.36 7-5.2 9.3-5.2V0c-3.05 0-7 2.17-11.07 5.94-4-3.74-8-5.9-11.07-5.9v2.48c2.29 0 5.7 1.83 9.31 5.16a51.51 51.51 0 00-4.57 5.54 52.45 52.45 0 00-7 1.21 30.72 30.72 0 01-.58-3.21c-.52-4.24.13-7.53 1.62-8.4a2.45 2.45 0 011.27-.29V.06a4.86 4.86 0 00-2.5.62c-3.12 1.8-3.82 7.4-2.2 14.42C4.49 17.23 0 20.63 0 24.22s4.51 7 11.43 9.14c-1.6 7-.89 12.65 2.24 14.45a4.84 4.84 0 002.5.62c3 0 7-2.17 11.07-5.94 4 3.75 8 5.9 11.07 5.9a5 5 0 002.5-.62c3.12-1.8 3.82-7.4 2.2-14.43 6.88-2.11 11.37-5.53 11.37-9.12zm-22.13 0a5.07 5.07 0 10-5.07 5.07 5.07 5.07 0 005.07-5.07zM40 16.83c-.41 1.43-.92 2.9-1.5 4.37-.46-.88-.93-1.77-1.45-2.66S35.94 16.79 35.4 16c1.57.23 3.09.52 4.54.88zm-5.08 11.8c-.86 1.5-1.75 2.92-2.67 4.24-1.65.14-3.32.22-5 .22s-3.35-.08-5-.21c-.92-1.32-1.82-2.73-2.68-4.22s-1.61-2.92-2.3-4.41c.68-1.48 1.46-3 2.29-4.42s1.75-2.92 2.67-4.23c1.65-.15 3.32-.22 5-.22s3.35.08 5 .21c.92 1.32 1.82 2.72 2.68 4.21s1.61 2.92 2.31 4.41c-.7 1.48-1.46 3-2.29 4.42zm3.58-1.44c.6 1.49 1.11 3 1.54 4.41-1.46.36-3 .66-4.57.89.54-.86 1.08-1.73 1.6-2.63s1-1.79 1.44-2.67zM27.21 39q-1.62-1.7-3.08-3.55c1 .05 2 .08 3.05.08s2.07 0 3.08-.08A42.91 42.91 0 0127.21 39zM19 32.49c-1.58-.24-3.1-.52-4.55-.88.41-1.43.92-2.9 1.5-4.37.46.88.93 1.77 1.45 2.66s1.06 1.75 1.6 2.59zm8.16-23.07q1.62 1.7 3.08 3.55c-1-.05-2-.08-3-.08s-2.07 0-3.08.08a42.91 42.91 0 013-3.55zM19 16c-.55.85-1.09 1.73-1.6 2.63s-1 1.77-1.45 2.66c-.6-1.49-1.1-3-1.53-4.41 1.46-.35 3-.65 4.57-.88zM9 29.88C5 28.16 2.46 26 2.46 24.22S5 20.27 8.92 18.61c.95-.41 2-.77 3.07-1.12a53.53 53.53 0 002.5 6.75A53.48 53.48 0 0012 31c-1.1-.34-2.14-.72-3.11-1.13zm6 15.84c-1.51-.86-2.16-4.16-1.65-8.39.12-1 .32-2.14.56-3.26a54.23 54.23 0 007 1.21 53.09 53.09 0 004.61 5.54c-3.61 3.36-7 5.2-9.31 5.2a2.68 2.68 0 01-1.25-.3zm26.29-8.45c.52 4.24-.12 7.53-1.62 8.4a2.45 2.45 0 01-1.27.29c-2.3 0-5.7-1.83-9.32-5.16a51.6 51.6 0 004.58-5.54A50.92 50.92 0 0040.6 34a31.63 31.63 0 01.58 3.23zm4.27-7.4a31.55 31.55 0 01-3.07 1.12 54.7 54.7 0 00-2.5-6.75 53.34 53.34 0 002.46-6.71c1.09.34 2.13.72 3.11 1.13 3.93 1.67 6.46 3.86 6.46 5.6s-2.54 3.95-6.47 5.61z" fill="#00d8ff" fill-rule="evenodd"></path>
  </symbol>
  <symbol xmlns="http://www.w3.org/2000/svg" viewBox="0 0 2432.44 2493.24" id="unity">
    <title>unity</title>
    <path d="M1585.94 1246.69l436.32-753.42 210.83 753.42-210.84 753.25-436.31-753.25zm-212.66 122.36l436.38 753.3-760-194.7-549-558.6zm436.28-998.23l-436.28 753.43H500.63l549-558.64zm622.88 619.47L2166.25 0l-993.53 265.43-147.08 258.54-298.43-2.14L0 1246.76l727.21 724.76 298.31-2.21 147.28 258.58 993.42 265.35 266.18-990.1-151.17-256.44 151.17-256.39z" fill="#222c37"></path>
  </symbol>
  <symbol xmlns="http://www.w3.org/2000/svg" viewBox="0 0 2500 2224.41" id="xamarin">
    <title>xamarin</title>
    <path d="M721.35 0c-67.52.15-133.62 38.48-167.6 96.94L25.1 1015.26c-33.47 58.63-33.47 135.26 0 193.88l528.65 918.33c34 58.47 100.08 96.81 167.6 96.94h1057.3c67.52-.14 133.62-38.47 167.6-96.94l528.65-918.33c33.47-58.62 33.46-135.25 0-193.88L1946.25 96.94c-34-58.47-100.08-96.8-167.6-96.94zM731 537.24a21.86 21.86 0 014.43 0h182.31a24 24 0 0120 11.83l309.36 551.29a23.5 23.5 0 012.93 8.89 23.88 23.88 0 013-8.89l308.62-551.29a24.1 24.1 0 0120.68-11.83h182.27c16.14.13 28.24 20.47 20.67 34.77l-302 540.2 302 539.45c8.28 14.37-4.1 35.65-20.67 35.52h-182.37a24.16 24.16 0 01-20.68-12.58l-308.62-551.3a23.7 23.7 0 01-2.94-8.88 23.75 23.75 0 01-2.94 8.89L937.68 1674.6a24.12 24.12 0 01-19.93 12.58H735.37c-16.57.14-29-21.15-20.67-35.52l302-539.45-302-540.2c-7.24-13.05 1.59-32 16.24-34.77z" fill="#3498db"></path>
  </symbol>
</svg>